<mxfile host="app.diagrams.net" modified="2024-02-20T19:39:27.605Z" agent="Mozilla/5.0 (X11; CrOS x86_64 14541.0.0) AppleWebKit/537.36 (KHTML, like Gecko) Chrome/120.0.0.0 Safari/537.36" version="23.1.5" etag="sIQ8NuR0_j6LH3njuDhC" type="github">
  <diagram name="Page-1" id="OYhCoA_SNwPERRgYXbz7">
    <mxGraphModel>
      <root>
        <mxCell id="0" />
        <mxCell id="1" parent="0" />
      </root>
    </mxGraphModel>
  </diagram>
</mxfile>
